<?xml version="1.0" encoding="utf-8"?>
<!-- Generator: Adobe Illustrator 24.2.1, SVG Export Plug-In . SVG Version: 6.00 Build 0)  -->
<svg version="1.1" id="Layer_1" xmlns="http://www.w3.org/2000/svg" xmlns:xlink="http://www.w3.org/1999/xlink" x="0px" y="0px"
	 viewBox="0 0 496.2 496.2" style="enable-background:new 0 0 496.2 496.2;" xml:space="preserve">
<style type="text/css">
	.st0{display:none;fill:#337180;}
	.st1{display:none;fill:#D3D3D3;}
	.st2{display:none;fill:#EAEAEA;}
	.st3{fill:#E5E5E5;}
	.st4{fill:#3B3B3B;}
	.st5{fill:#EA4949;}
	.st6{fill:#F25F5F;}
	.st7{fill:#2BBF60;}
	.st8{fill:#EAB42D;}
	.st9{fill:#EDCB3B;}
	.st10{fill:#3CCE6C;}
</style>
<path class="st0" d="M248.1,0C111.1,0,0,111.1,0,248.1c0,137,111.1,248.1,248.1,248.1c137,0,248.1-111.1,248.1-248.1
	C496.2,111.1,385.1,0,248.1,0z"/>
<path class="st1" d="M229.8,246.9v248.6c6,0.4,12.1,0.7,18.3,0.7c5.4,0,10.7-0.2,16-0.5V246.9H229.8z"/>
<path class="st2" d="M229.8,246.9v248.6c6,0.4,12.1,0.7,18.3,0.7V246.9H229.8z"/>
<path class="st3" d="M65.6,214.6c0,52.1,25,94.3,55.7,94.3h253.5c30.8,0,55.7-42.2,55.7-94.3s-25-94.3-55.7-94.3H121.3
	C90.5,120.3,65.6,162.5,65.6,214.6z"/>
<path class="st4" d="M75.6,214.6c0,45.1,23.6,81.6,52.7,81.6h239.6c29.1,0,52.7-36.5,52.7-81.6S397,133,367.9,133l-239.6,0
	C99.2,133,75.6,169.5,75.6,214.6z"/>
<circle class="st5" cx="150.1" cy="214.6" r="43"/>
<path class="st6" d="M123.7,188.2c-14.6,14.6-14.6,38.2,0,52.8c14.6,14.6,38.2,14.6,52.8,0C191.1,226.4,138.3,173.6,123.7,188.2z"/>
<circle class="st7" cx="350.6" cy="214.6" r="43"/>
<circle class="st8" cx="250.6" cy="214.6" r="43"/>
<path class="st9" d="M224.7,188.2c-14.6,14.6-14.6,38.2,0,52.8c14.6,14.6,38.2,14.6,52.8,0C292.1,226.4,239.3,173.6,224.7,188.2z"/>
<path class="st10" d="M324.7,188.2c-14.6,14.6-14.6,38.2,0,52.8c14.6,14.6,38.2,14.6,52.8,0C392.1,226.4,339.3,173.6,324.7,188.2z"
	/>
</svg>
